<svg xmlns="http://www.w3.org/2000/svg" viewBox="0 0 29.95 29.95"><defs><style>.cls-1{fill:#fff;}.cls-2{fill:red;}</style></defs><g id="Capa_2" data-name="Capa 2"><g id="Capa_1-2" data-name="Capa 1"><circle class="cls-1" cx="15.1" cy="15.25" r="10.72"/><rect class="cls-1" x="13.12" y="22.17" width="3.39" height="7.78"/><rect class="cls-1" x="13.28" width="3.39" height="7.78"/><rect class="cls-1" y="13.53" width="7.78" height="3.39"/><rect class="cls-1" x="22.17" y="13.69" width="7.78" height="3.39"/><rect class="cls-1" x="5.21" y="3.82" width="3.39" height="7.78" transform="translate(-3.44 7.53) rotate(-47.16)"/><rect class="cls-1" x="21.35" y="18.22" width="3.39" height="7.78" transform="translate(-8.83 23.97) rotate(-47.16)"/><rect class="cls-1" x="20.22" y="7.34" width="7.78" height="3.39" transform="translate(-0.83 15.42) rotate(-34.9)"/><rect class="cls-1" x="1.95" y="19.89" width="7.78" height="3.39" transform="translate(-11.3 7.22) rotate(-34.9)"/><circle class="cls-2" cx="15.45" cy="14.9" r="8.07"/><rect class="cls-2" x="13.96" y="20.11" width="2.55" height="5.85"/><rect class="cls-2" x="14.08" y="3.43" width="2.55" height="5.85"/><rect class="cls-2" x="4.09" y="13.61" width="5.85" height="2.55"/><rect class="cls-2" x="20.76" y="13.73" width="5.85" height="2.55"/><rect class="cls-2" x="8.01" y="6.3" width="2.55" height="5.85" transform="translate(-3.8 9.76) rotate(-47.16)"/><rect class="cls-2" x="20.15" y="17.13" width="2.55" height="5.85" transform="translate(-7.85 22.13) rotate(-47.16)"/><rect class="cls-2" x="19.3" y="8.95" width="5.85" height="2.55" transform="matrix(0.82, -0.57, 0.57, 0.82, -1.85, 14.56)"/><rect class="cls-2" x="5.55" y="18.39" width="5.85" height="2.55" transform="translate(-9.73 8.39) rotate(-34.9)"/></g></g></svg>